<?xml version="1.0" encoding="utf-8" standalone="no"?>
<!DOCTYPE svg PUBLIC "-//W3C//DTD SVG 1.1//EN"
  "http://www.w3.org/Graphics/SVG/1.1/DTD/svg11.dtd">
<svg xmlns:xlink="http://www.w3.org/1999/xlink" width="460.8pt" height="345.6pt" viewBox="0 0 460.8 345.6" xmlns="http://www.w3.org/2000/svg" version="1.1">
 <metadata>
  <rdf:RDF xmlns:dc="http://purl.org/dc/elements/1.1/" xmlns:cc="http://creativecommons.org/ns#" xmlns:rdf="http://www.w3.org/1999/02/22-rdf-syntax-ns#">
   <cc:Work>
    <dc:type rdf:resource="http://purl.org/dc/dcmitype/StillImage"/>
    <dc:date>2023-10-19T16:02:59.674797</dc:date>
    <dc:format>image/svg+xml</dc:format>
    <dc:creator>
     <cc:Agent>
      <dc:title>Matplotlib v3.8.0, https://matplotlib.org/</dc:title>
     </cc:Agent>
    </dc:creator>
   </cc:Work>
  </rdf:RDF>
 </metadata>
 <defs>
  <style type="text/css">*{stroke-linejoin: round; stroke-linecap: butt}</style>
 </defs>
 <g id="figure_1">
  <g id="patch_1">
   <path d="M 0 345.6 
L 460.8 345.6 
L 460.8 0 
L 0 0 
z
" style="fill: #ffffff"/>
  </g>
  <g id="axes_1">
   <g id="patch_2">
    <path d="M 57.6 307.584 
L 414.72 307.584 
L 414.72 41.472 
L 57.6 41.472 
z
" style="fill: #ffffff"/>
   </g>
   <g id="matplotlib.axis_1">
    <g id="xtick_1">
     <g id="line2d_1">
      <defs>
       <path id="mb9b286a708" d="M 0 0 
L 0 3.5 
" style="stroke: #000000; stroke-width: 0.8"/>
      </defs>
      <g>
       <use xlink:href="#mb9b286a708" x="356.282182" y="307.584" style="stroke: #000000; stroke-width: 0.8"/>
      </g>
     </g>
     <g id="text_1">
      <!-- $x^*$ -->
      <g transform="translate(349.832182 322.182437) scale(0.1 -0.1)">
       <defs>
        <path id="DejaVuSans-Oblique-78" d="M 3841 3500 
L 2234 1784 
L 3219 0 
L 2559 0 
L 1819 1388 
L 531 0 
L -166 0 
L 1556 1844 
L 641 3500 
L 1300 3500 
L 1972 2234 
L 3144 3500 
L 3841 3500 
z
" transform="scale(0.015625)"/>
        <path id="DejaVuSans-2a" d="M 3009 3897 
L 1888 3291 
L 3009 2681 
L 2828 2375 
L 1778 3009 
L 1778 1831 
L 1422 1831 
L 1422 3009 
L 372 2375 
L 191 2681 
L 1313 3291 
L 191 3897 
L 372 4206 
L 1422 3572 
L 1422 4750 
L 1778 4750 
L 1778 3572 
L 2828 4206 
L 3009 3897 
z
" transform="scale(0.015625)"/>
       </defs>
       <use xlink:href="#DejaVuSans-Oblique-78" transform="translate(0 0.765625)"/>
       <use xlink:href="#DejaVuSans-2a" transform="translate(77.283529 39.046875) scale(0.7)"/>
      </g>
     </g>
    </g>
    <g id="text_2">
     <!-- $x$ -->
     <g transform="translate(233.16 335.860562) scale(0.1 -0.1)">
      <use xlink:href="#DejaVuSans-Oblique-78" transform="translate(0 0.3125)"/>
     </g>
    </g>
   </g>
   <g id="matplotlib.axis_2">
    <g id="text_3">
     <!-- $f(x)$ -->
     <g transform="translate(51.520313 183.178) rotate(-90) scale(0.1 -0.1)">
      <defs>
       <path id="DejaVuSans-Oblique-66" d="M 3059 4863 
L 2969 4384 
L 2419 4384 
Q 2106 4384 1964 4261 
Q 1822 4138 1753 3809 
L 1691 3500 
L 2638 3500 
L 2553 3053 
L 1606 3053 
L 1013 0 
L 434 0 
L 1031 3053 
L 481 3053 
L 563 3500 
L 1113 3500 
L 1159 3744 
Q 1278 4363 1576 4613 
Q 1875 4863 2516 4863 
L 3059 4863 
z
" transform="scale(0.015625)"/>
       <path id="DejaVuSans-28" d="M 1984 4856 
Q 1566 4138 1362 3434 
Q 1159 2731 1159 2009 
Q 1159 1288 1364 580 
Q 1569 -128 1984 -844 
L 1484 -844 
Q 1016 -109 783 600 
Q 550 1309 550 2009 
Q 550 2706 781 3412 
Q 1013 4119 1484 4856 
L 1984 4856 
z
" transform="scale(0.015625)"/>
       <path id="DejaVuSans-29" d="M 513 4856 
L 1013 4856 
Q 1481 4119 1714 3412 
Q 1947 2706 1947 2009 
Q 1947 1309 1714 600 
Q 1481 -109 1013 -844 
L 513 -844 
Q 928 -128 1133 580 
Q 1338 1288 1338 2009 
Q 1338 2731 1133 3434 
Q 928 4138 513 4856 
z
" transform="scale(0.015625)"/>
      </defs>
      <use xlink:href="#DejaVuSans-Oblique-66" transform="translate(0 0.015625)"/>
      <use xlink:href="#DejaVuSans-28" transform="translate(35.205078 0.015625)"/>
      <use xlink:href="#DejaVuSans-Oblique-78" transform="translate(74.21875 0.015625)"/>
      <use xlink:href="#DejaVuSans-29" transform="translate(133.398438 0.015625)"/>
     </g>
    </g>
   </g>
   <g id="line2d_2">
    <path d="M 73.832727 174.528 
L 83.621307 174.442252 
L 90.147026 174.173455 
L 98.304175 173.584914 
L 106.461325 173.007522 
L 111.355614 172.888453 
L 114.618474 172.983593 
L 117.881334 173.257157 
L 121.144194 173.733011 
L 124.407053 174.423014 
L 127.669913 175.324272 
L 130.932773 176.417188 
L 135.827063 178.32962 
L 145.615642 182.318828 
L 148.878502 183.379586 
L 152.141361 184.144218 
L 155.404221 184.518447 
L 157.035651 184.532401 
L 158.667081 184.418521 
L 160.298511 184.169028 
L 161.929941 183.777578 
L 163.56137 183.239434 
L 165.1928 182.551622 
L 166.82423 181.71307 
L 168.45566 180.724727 
L 170.08709 179.589653 
L 173.34995 176.902508 
L 176.61281 173.720302 
L 179.875669 170.146903 
L 184.769959 164.36094 
L 189.664249 158.587356 
L 192.927108 155.07516 
L 196.189968 152.075487 
L 197.821398 150.832032 
L 199.452828 149.792131 
L 201.084258 148.978638 
L 202.715688 148.412696 
L 204.347117 148.113389 
L 205.978547 148.097419 
L 207.609977 148.378788 
L 209.241407 148.968516 
L 210.872837 149.874375 
L 212.504267 151.100656 
L 214.135697 152.647979 
L 215.767127 154.513126 
L 217.398556 156.688935 
L 219.029986 159.164222 
L 220.661416 161.923764 
L 222.292846 164.948319 
L 225.555706 171.695927 
L 228.818566 179.176973 
L 235.344285 195.158471 
L 238.607145 202.970069 
L 241.870005 210.164933 
L 243.501434 213.412731 
L 245.132864 216.365873 
L 246.764294 218.980161 
L 248.395724 221.213672 
L 250.027154 223.027321 
L 251.658584 224.385413 
L 253.290014 225.256176 
L 254.921444 225.612257 
L 256.552873 225.431187 
L 258.184303 224.695803 
L 259.815733 223.394618 
L 261.447163 221.52214 
L 263.078593 219.079128 
L 264.710023 216.072784 
L 266.341453 212.516877 
L 267.972883 208.431792 
L 269.604312 203.844505 
L 271.235742 198.788486 
L 274.498602 187.435421 
L 277.761462 174.761392 
L 282.655751 154.32768 
L 287.550041 133.863959 
L 290.812901 121.210248 
L 292.444331 115.409477 
L 294.075761 110.058564 
L 295.70719 105.22859 
L 297.33862 100.98697 
L 298.97005 97.396604 
L 300.60148 94.515054 
L 302.23291 92.393755 
L 303.86434 91.077282 
L 305.49577 90.602668 
L 307.1272 90.998789 
L 308.75863 92.285831 
L 310.390059 94.474833 
L 312.021489 97.567326 
L 313.652919 101.555062 
L 315.284349 106.419856 
L 316.915779 112.133521 
L 318.547209 118.657925 
L 320.178639 125.945154 
L 321.810069 133.937786 
L 325.072928 151.764481 
L 328.335788 171.505998 
L 334.861508 213.652256 
L 338.124367 234.326547 
L 341.387227 253.523676 
L 343.018657 262.286976 
L 344.650087 270.349288 
L 346.281517 277.608377 
L 347.912947 283.968184 
L 349.544376 289.340004 
L 351.175806 293.643612 
L 352.807236 296.808331 
L 354.438666 298.774005 
L 356.070096 299.49189 
L 357.701526 298.925432 
L 359.332956 297.050941 
L 360.964386 293.858125 
L 362.595815 289.3505 
L 364.227245 283.545657 
L 365.858675 276.475381 
L 367.490105 268.185616 
L 369.121535 258.736285 
L 370.752965 248.20094 
L 372.384395 236.666271 
L 375.647254 211.007366 
L 378.910114 182.687506 
L 390.330123 79.128366 
L 393.592983 53.427381 
L 395.224413 41.999615 
L 396.855843 31.709262 
L 398.487273 22.686946 
L 398.487273 22.686946 
" clip-path="url(#p777987a7b4)" style="fill: none; stroke: #1f77b4; stroke-width: 1.5; stroke-linecap: square"/>
   </g>
   <g id="line2d_3">
    <path d="M 356.282182 298.4364 
" clip-path="url(#p777987a7b4)" style="fill: none; stroke: #bf00bf; stroke-width: 1.5; stroke-linecap: square"/>
    <defs>
     <path id="m7994fa11a9" d="M 0 5 
C 1.326016 5 2.597899 4.473168 3.535534 3.535534 
C 4.473168 2.597899 5 1.326016 5 0 
C 5 -1.326016 4.473168 -2.597899 3.535534 -3.535534 
C 2.597899 -4.473168 1.326016 -5 0 -5 
C -1.326016 -5 -2.597899 -4.473168 -3.535534 -3.535534 
C -4.473168 -2.597899 -5 -1.326016 -5 0 
C -5 1.326016 -4.473168 2.597899 -3.535534 3.535534 
C -2.597899 4.473168 -1.326016 5 0 5 
z
" style="stroke: #bf00bf"/>
    </defs>
    <g clip-path="url(#p777987a7b4)">
     <use xlink:href="#m7994fa11a9" x="356.282182" y="298.4364" style="fill: #bf00bf; stroke: #bf00bf"/>
    </g>
   </g>
   <g id="line2d_4">
    <path d="M 73.832727 174.528 
L 83.621307 174.613748 
L 90.147026 174.882545 
L 98.304175 175.471086 
L 106.461325 176.048478 
L 111.355614 176.167547 
L 114.618474 176.072407 
L 117.881334 175.798843 
L 121.144194 175.322989 
L 124.407053 174.632986 
L 127.669913 173.731728 
L 130.932773 172.638812 
L 135.827063 170.72638 
L 145.615642 166.737172 
L 148.878502 165.676414 
L 152.141361 164.911782 
L 155.404221 164.537553 
L 157.035651 164.523599 
L 158.667081 164.637479 
L 160.298511 164.886972 
L 161.929941 165.278422 
L 163.56137 165.816566 
L 165.1928 166.504378 
L 166.82423 167.34293 
L 168.45566 168.331273 
L 170.08709 169.466347 
L 173.34995 172.153492 
L 176.61281 175.335698 
L 179.875669 178.909097 
L 184.769959 184.69506 
L 189.664249 190.468644 
L 192.927108 193.98084 
L 196.189968 196.980513 
L 197.821398 198.223968 
L 199.452828 199.263869 
L 201.084258 200.077362 
L 202.715688 200.643304 
L 204.347117 200.942611 
L 205.978547 200.958581 
L 207.609977 200.677212 
L 209.241407 200.087484 
L 210.872837 199.181625 
L 212.504267 197.955344 
L 214.135697 196.408021 
L 215.767127 194.542874 
L 217.398556 192.367065 
L 219.029986 189.891778 
L 220.661416 187.132236 
L 222.292846 184.107681 
L 225.555706 177.360073 
L 228.818566 169.879027 
L 235.344285 153.897529 
L 238.607145 146.085931 
L 241.870005 138.891067 
L 243.501434 135.643269 
L 245.132864 132.690127 
L 246.764294 130.075839 
L 248.395724 127.842328 
L 250.027154 126.028679 
L 251.658584 124.670587 
L 253.290014 123.799824 
L 254.921444 123.443743 
L 256.552873 123.624813 
L 258.184303 124.360197 
L 259.815733 125.661382 
L 261.447163 127.53386 
L 263.078593 129.976872 
L 264.710023 132.983216 
L 266.341453 136.539123 
L 267.972883 140.624208 
L 269.604312 145.211495 
L 271.235742 150.267514 
L 274.498602 161.620579 
L 277.761462 174.294608 
L 282.655751 194.72832 
L 287.550041 215.192041 
L 290.812901 227.845752 
L 292.444331 233.646523 
L 294.075761 238.997436 
L 295.70719 243.82741 
L 297.33862 248.06903 
L 298.97005 251.659396 
L 300.60148 254.540946 
L 302.23291 256.662245 
L 303.86434 257.978718 
L 305.49577 258.453332 
L 307.1272 258.057211 
L 308.75863 256.770169 
L 310.390059 254.581167 
L 312.021489 251.488674 
L 313.652919 247.500938 
L 315.284349 242.636144 
L 316.915779 236.922479 
L 318.547209 230.398075 
L 320.178639 223.110846 
L 321.810069 215.118214 
L 325.072928 197.291519 
L 328.335788 177.550002 
L 334.861508 135.403744 
L 338.124367 114.729453 
L 341.387227 95.532324 
L 343.018657 86.769024 
L 344.650087 78.706712 
L 346.281517 71.447623 
L 347.912947 65.087816 
L 349.544376 59.715996 
L 351.175806 55.412388 
L 352.807236 52.247669 
L 354.438666 50.281995 
L 356.070096 49.56411 
L 357.701526 50.130568 
L 359.332956 52.005059 
L 360.964386 55.197875 
L 362.595815 59.7055 
L 364.227245 65.510343 
L 365.858675 72.580619 
L 367.490105 80.870384 
L 369.121535 90.319715 
L 370.752965 100.85506 
L 372.384395 112.389729 
L 375.647254 138.048634 
L 378.910114 166.368494 
L 390.330123 269.927634 
L 393.592983 295.628619 
L 395.224413 307.056385 
L 396.855843 317.346738 
L 398.487273 326.369054 
L 398.487273 326.369054 
" clip-path="url(#p777987a7b4)" style="fill: none; stroke-dasharray: 5.55,2.4; stroke-dashoffset: 0; stroke: #ff7f0e; stroke-width: 1.5"/>
   </g>
   <g id="line2d_5">
    <path d="M 356.282182 50.6196 
" clip-path="url(#p777987a7b4)" style="fill: none; stroke: #bf00bf; stroke-width: 1.5; stroke-linecap: square"/>
    <g clip-path="url(#p777987a7b4)">
     <use xlink:href="#m7994fa11a9" x="356.282182" y="50.6196" style="fill: #bf00bf; stroke: #bf00bf"/>
    </g>
   </g>
   <g id="patch_3">
    <path d="M 57.6 307.584 
L 57.6 41.472 
" style="fill: none; stroke: #000000; stroke-width: 0.8; stroke-linejoin: miter; stroke-linecap: square"/>
   </g>
   <g id="patch_4">
    <path d="M 414.72 307.584 
L 414.72 41.472 
" style="fill: none; stroke: #000000; stroke-width: 0.8; stroke-linejoin: miter; stroke-linecap: square"/>
   </g>
   <g id="patch_5">
    <path d="M 57.6 307.584 
L 414.72 307.584 
" style="fill: none; stroke: #000000; stroke-width: 0.8; stroke-linejoin: miter; stroke-linecap: square"/>
   </g>
   <g id="patch_6">
    <path d="M 57.6 41.472 
L 414.72 41.472 
" style="fill: none; stroke: #000000; stroke-width: 0.8; stroke-linejoin: miter; stroke-linecap: square"/>
   </g>
  </g>
 </g>
 <defs>
  <clipPath id="p777987a7b4">
   <rect x="57.6" y="41.472" width="357.12" height="266.112"/>
  </clipPath>
 </defs>
</svg>
