<?xml version="1.0" encoding="utf-8" standalone="no"?>
<!DOCTYPE svg PUBLIC "-//W3C//DTD SVG 1.1//EN"
  "http://www.w3.org/Graphics/SVG/1.1/DTD/svg11.dtd">
<svg xmlns:xlink="http://www.w3.org/1999/xlink" width="460.8pt" height="345.6pt" viewBox="0 0 460.8 345.6" xmlns="http://www.w3.org/2000/svg" version="1.1">
 <metadata>
  <rdf:RDF xmlns:dc="http://purl.org/dc/elements/1.1/" xmlns:cc="http://creativecommons.org/ns#" xmlns:rdf="http://www.w3.org/1999/02/22-rdf-syntax-ns#">
   <cc:Work>
    <dc:type rdf:resource="http://purl.org/dc/dcmitype/StillImage"/>
    <dc:date>2023-11-09T22:39:31.670358</dc:date>
    <dc:format>image/svg+xml</dc:format>
    <dc:creator>
     <cc:Agent>
      <dc:title>Matplotlib v3.8.0, https://matplotlib.org/</dc:title>
     </cc:Agent>
    </dc:creator>
   </cc:Work>
  </rdf:RDF>
 </metadata>
 <defs>
  <style type="text/css">*{stroke-linejoin: round; stroke-linecap: butt}</style>
 </defs>
 <g id="figure_1">
  <g id="patch_1">
   <path d="M 0 345.6 
L 460.8 345.6 
L 460.8 0 
L 0 0 
z
" style="fill: #ffffff"/>
  </g>
  <g id="axes_1">
   <g id="patch_2">
    <path d="M 57.6 307.584 
L 414.72 307.584 
L 414.72 41.472 
L 57.6 41.472 
z
" style="fill: #ffffff"/>
   </g>
   <g id="PolyCollection_1">
    <defs>
     <path id="m7d7d8b2073" d="M 73.832727 -50.112 
L 73.832727 -56.612077 
L 74.468059 -56.604726 
L 75.103391 -56.58274 
L 75.738723 -56.546321 
L 76.374054 -56.50399 
L 77.009386 -56.441376 
L 77.644718 -56.367277 
L 78.28005 -56.282442 
L 78.915382 -56.186423 
L 79.550713 -56.080191 
L 80.186045 -55.972987 
L 80.821377 -55.851098 
L 81.456709 -55.722588 
L 82.092041 -55.588694 
L 82.727372 -55.450681 
L 83.362704 -55.309826 
L 83.998036 -55.167401 
L 84.633368 -55.02466 
L 85.2687 -54.882829 
L 85.904031 -54.743092 
L 86.539363 -54.606575 
L 87.174695 -54.474343 
L 87.810027 -54.355576 
L 88.445358 -54.236353 
L 89.08069 -54.124386 
L 89.716022 -54.028624 
L 90.351354 -53.934899 
L 90.986686 -53.850665 
L 91.622017 -53.784603 
L 92.257349 -53.722276 
L 92.892681 -53.670866 
L 93.528013 -53.62373 
L 94.163345 -53.595848 
L 94.798676 -53.579082 
L 95.434008 -53.573386 
L 96.06934 -53.578624 
L 96.704672 -53.594568 
L 97.340004 -53.620904 
L 97.975335 -53.657236 
L 98.610667 -53.703094 
L 99.245999 -53.757933 
L 99.881331 -53.821144 
L 100.516663 -53.89206 
L 101.151994 -53.978146 
L 101.787326 -54.071994 
L 102.422658 -54.173049 
L 103.05799 -54.280758 
L 103.693321 -54.394577 
L 104.328653 -54.513984 
L 104.963985 -54.638489 
L 105.599317 -54.767641 
L 106.234649 -54.910564 
L 106.86998 -55.037071 
L 107.505312 -55.182206 
L 108.140644 -55.322631 
L 108.775976 -55.458112 
L 109.411308 -55.596471 
L 110.046639 -55.752482 
L 110.681971 -55.903141 
L 111.317303 -56.073123 
L 111.952635 -56.250681 
L 112.587967 -56.427135 
L 113.223298 -56.608791 
L 113.85863 -56.79652 
L 114.493962 -57.007673 
L 115.129294 -57.205467 
L 115.764626 -57.436047 
L 116.399957 -57.672353 
L 117.035289 -57.922871 
L 117.670621 -58.189323 
L 118.305953 -58.457135 
L 118.941284 -58.749657 
L 119.576616 -59.06168 
L 120.211948 -59.394863 
L 120.84728 -59.759048 
L 121.482612 -60.132832 
L 122.117943 -60.53131 
L 122.753275 -60.988502 
L 123.388607 -61.454424 
L 124.023939 -61.950984 
L 124.659271 -62.472507 
L 125.294602 -63.043065 
L 125.929934 -63.648698 
L 126.565266 -64.273944 
L 127.200598 -64.95738 
L 127.83593 -65.654541 
L 128.471261 -66.394028 
L 129.106593 -67.193314 
L 129.741925 -68.031977 
L 130.377257 -68.893624 
L 131.012589 -69.783147 
L 131.64792 -70.714504 
L 132.283252 -71.687886 
L 132.918584 -72.703495 
L 133.553916 -73.728821 
L 134.189247 -74.79076 
L 134.824579 -75.872403 
L 135.459911 -76.994754 
L 136.095243 -78.117577 
L 136.730575 -79.283331 
L 137.365906 -80.444686 
L 138.001238 -81.627549 
L 138.63657 -82.814117 
L 139.271902 -84.041 
L 139.907234 -85.262186 
L 140.542565 -86.498393 
L 141.177897 -87.756914 
L 141.813229 -89.004683 
L 142.448561 -90.261723 
L 143.083893 -91.503295 
L 143.719224 -92.741387 
L 144.354556 -93.982616 
L 144.989888 -95.243515 
L 145.62522 -96.462273 
L 146.260552 -97.681639 
L 146.895883 -98.902271 
L 147.531215 -100.117099 
L 148.166547 -101.317974 
L 148.801879 -102.518675 
L 149.43721 -103.712796 
L 150.072542 -104.918683 
L 150.707874 -106.099329 
L 151.343206 -107.283053 
L 151.978538 -108.46419 
L 152.613869 -109.684999 
L 153.249201 -110.872745 
L 153.884533 -112.071581 
L 154.519865 -113.276555 
L 155.155197 -114.506033 
L 155.790528 -115.7406 
L 156.42586 -116.981268 
L 157.061192 -118.25346 
L 157.696524 -119.54738 
L 158.331856 -120.865719 
L 158.967187 -122.209888 
L 159.602519 -123.551187 
L 160.237851 -124.927151 
L 160.873183 -126.37254 
L 161.508514 -127.808224 
L 162.143846 -129.285267 
L 162.779178 -130.805435 
L 163.41451 -132.371884 
L 164.049842 -133.979656 
L 164.685173 -135.630497 
L 165.320505 -137.309619 
L 165.955837 -139.056304 
L 166.591169 -140.834998 
L 167.226501 -142.668386 
L 167.861832 -144.517621 
L 168.497164 -146.458912 
L 169.132496 -148.443505 
L 169.767828 -150.445639 
L 170.40316 -152.565516 
L 171.038491 -154.653237 
L 171.673823 -156.832822 
L 172.309155 -159.037569 
L 172.944487 -161.302533 
L 173.579819 -163.628572 
L 174.21515 -165.992182 
L 174.850482 -168.414538 
L 175.485814 -170.839125 
L 176.121146 -173.316205 
L 176.756477 -175.827777 
L 177.391809 -178.368103 
L 178.027141 -180.925693 
L 178.662473 -183.53509 
L 179.297805 -186.206702 
L 179.933136 -188.81546 
L 180.568468 -191.432484 
L 181.2038 -194.055944 
L 181.839132 -196.685302 
L 182.474464 -199.338007 
L 183.109795 -201.995236 
L 183.745127 -204.638524 
L 184.380459 -207.241176 
L 185.015791 -209.857881 
L 185.651123 -212.400745 
L 186.286454 -214.94058 
L 186.921786 -217.509096 
L 187.557118 -219.999026 
L 188.19245 -222.509948 
L 188.827782 -224.958348 
L 189.463113 -227.395601 
L 190.098445 -229.79184 
L 190.733777 -232.121472 
L 191.369109 -234.433619 
L 192.00444 -236.712414 
L 192.639772 -238.906738 
L 193.275104 -241.08213 
L 193.910436 -243.22959 
L 194.545768 -245.343293 
L 195.181099 -247.409495 
L 195.816431 -249.436201 
L 196.451763 -251.428844 
L 197.087095 -253.373776 
L 197.722427 -255.285933 
L 198.357758 -257.123097 
L 198.99309 -258.892516 
L 199.628422 -260.641579 
L 200.263754 -262.378749 
L 200.899086 -264.072193 
L 201.534417 -265.721471 
L 202.169749 -267.296074 
L 202.805081 -268.808388 
L 203.440413 -270.316827 
L 204.075745 -271.768911 
L 204.711076 -273.20356 
L 205.346408 -274.529348 
L 205.98174 -275.806825 
L 206.617072 -276.995355 
L 207.252403 -278.177804 
L 207.887735 -279.336023 
L 208.523067 -280.402378 
L 209.158399 -281.357788 
L 209.793731 -282.308931 
L 210.429062 -283.208183 
L 211.064394 -284.011032 
L 211.699726 -284.789922 
L 212.335058 -285.533254 
L 212.97039 -286.260399 
L 213.605721 -286.944016 
L 214.241053 -287.547514 
L 214.876385 -288.080164 
L 215.511717 -288.609381 
L 216.147049 -289.075204 
L 216.78238 -289.486782 
L 217.417712 -289.877392 
L 218.053044 -290.2179 
L 218.688376 -290.522384 
L 219.323708 -290.777256 
L 219.959039 -291.001057 
L 220.594371 -291.258456 
L 221.229703 -291.459843 
L 221.865035 -291.634867 
L 222.500366 -291.733402 
L 223.135698 -291.875933 
L 223.77103 -291.963065 
L 224.406362 -292.022779 
L 225.041694 -292.015618 
L 225.677025 -292.032 
L 226.312357 -292.00343 
L 226.947689 -291.942833 
L 227.583021 -291.827303 
L 228.218353 -291.682418 
L 228.853684 -291.488658 
L 229.489016 -291.310863 
L 230.124348 -291.063641 
L 230.75968 -290.730539 
L 231.395012 -290.358518 
L 232.030343 -289.973009 
L 232.665675 -289.47479 
L 233.301007 -288.911044 
L 233.936339 -288.287976 
L 234.571671 -287.620275 
L 235.207002 -286.898942 
L 235.842334 -286.069386 
L 236.477666 -285.165132 
L 237.112998 -284.191451 
L 237.748329 -283.160926 
L 238.383661 -282.02284 
L 239.018993 -280.794484 
L 239.654325 -279.531721 
L 240.289657 -278.10313 
L 240.924988 -276.703894 
L 241.56032 -275.178141 
L 242.195652 -273.596229 
L 242.830984 -271.91333 
L 243.466316 -270.156542 
L 244.101647 -268.361448 
L 244.736979 -266.480104 
L 245.372311 -264.605088 
L 246.007643 -262.628668 
L 246.642975 -260.654012 
L 247.278306 -258.627245 
L 247.913638 -256.550499 
L 248.54897 -254.429757 
L 249.184302 -252.288073 
L 249.819634 -250.172273 
L 250.454965 -248.040202 
L 251.090297 -245.892889 
L 251.725629 -243.739102 
L 252.360961 -241.576279 
L 252.996292 -239.458443 
L 253.631624 -237.347241 
L 254.266956 -235.273426 
L 254.902288 -233.210192 
L 255.53762 -231.195514 
L 256.172951 -229.209763 
L 256.808283 -227.210523 
L 257.443615 -225.320437 
L 258.078947 -223.420002 
L 258.714279 -221.592917 
L 259.34961 -219.779467 
L 259.984942 -218.017051 
L 260.620274 -216.308733 
L 261.255606 -214.636832 
L 261.890938 -212.985789 
L 262.526269 -211.373505 
L 263.161601 -209.795714 
L 263.796933 -208.2287 
L 264.432265 -206.678081 
L 265.067597 -205.155969 
L 265.702928 -203.659535 
L 266.33826 -202.168372 
L 266.973592 -200.686516 
L 267.608924 -199.209847 
L 268.244255 -197.744214 
L 268.879587 -196.284871 
L 269.514919 -194.786474 
L 270.150251 -193.263272 
L 270.785583 -191.743196 
L 271.420914 -190.185268 
L 272.056246 -188.629058 
L 272.691578 -187.079554 
L 273.32691 -185.494896 
L 273.962242 -183.875806 
L 274.597573 -182.198511 
L 275.232905 -180.541447 
L 275.868237 -178.886149 
L 276.503569 -177.202956 
L 277.138901 -175.47329 
L 277.774232 -173.682279 
L 278.409564 -171.911512 
L 279.044896 -170.141555 
L 279.680228 -168.316505 
L 280.31556 -166.473884 
L 280.950891 -164.659576 
L 281.586223 -162.822228 
L 282.221555 -160.960565 
L 282.856887 -159.096008 
L 283.492218 -157.248593 
L 284.12755 -155.425236 
L 284.762882 -153.608696 
L 285.398214 -151.817108 
L 286.033546 -150.03053 
L 286.668877 -148.271185 
L 287.304209 -146.505219 
L 287.939541 -144.786865 
L 288.574873 -143.079295 
L 289.210205 -141.406665 
L 289.845536 -139.734298 
L 290.480868 -138.077051 
L 291.1162 -136.458912 
L 291.751532 -134.877945 
L 292.386864 -133.33356 
L 293.022195 -131.789445 
L 293.657527 -130.306701 
L 294.292859 -128.854126 
L 294.928191 -127.444093 
L 295.563523 -126.017887 
L 296.198854 -124.643917 
L 296.834186 -123.291263 
L 297.469518 -121.973788 
L 298.10485 -120.680886 
L 298.740181 -119.442775 
L 299.375513 -118.179515 
L 300.010845 -116.956241 
L 300.646177 -115.753751 
L 301.281509 -114.599296 
L 301.91684 -113.419545 
L 302.552172 -112.294684 
L 303.187504 -111.174727 
L 303.822836 -110.068142 
L 304.458168 -108.946432 
L 305.093499 -107.847492 
L 305.728831 -106.776821 
L 306.364163 -105.730987 
L 306.999495 -104.671456 
L 307.634827 -103.643977 
L 308.270158 -102.596561 
L 308.90549 -101.57929 
L 309.540822 -100.554007 
L 310.176154 -99.557541 
L 310.811486 -98.538459 
L 311.446817 -97.53627 
L 312.082149 -96.549893 
L 312.717481 -95.585443 
L 313.352813 -94.620747 
L 313.988144 -93.651172 
L 314.623476 -92.715576 
L 315.258808 -91.763204 
L 315.89414 -90.846575 
L 316.529472 -89.921708 
L 317.164803 -89.020587 
L 317.800135 -88.163283 
L 318.435467 -87.304869 
L 319.070799 -86.443506 
L 319.706131 -85.631598 
L 320.341462 -84.843077 
L 320.976794 -84.057228 
L 321.612126 -83.297895 
L 322.247458 -82.564404 
L 322.88279 -81.814911 
L 323.518121 -81.110419 
L 324.153453 -80.426318 
L 324.788785 -79.769264 
L 325.424117 -79.137748 
L 326.059448 -78.517843 
L 326.69478 -77.910323 
L 327.330112 -77.30741 
L 327.965444 -76.737779 
L 328.600776 -76.185274 
L 329.236107 -75.6569 
L 329.871439 -75.135266 
L 330.506771 -74.632812 
L 331.142103 -74.133373 
L 331.777435 -73.650633 
L 332.412766 -73.182107 
L 333.048098 -72.711785 
L 333.68343 -72.246705 
L 334.318762 -71.785768 
L 334.954094 -71.321092 
L 335.589425 -70.852883 
L 336.224757 -70.401871 
L 336.860089 -69.937346 
L 337.495421 -69.488534 
L 338.130753 -69.045622 
L 338.766084 -68.586741 
L 339.401416 -68.134893 
L 340.036748 -67.682014 
L 340.67208 -67.221501 
L 341.307411 -66.775456 
L 341.942743 -66.328229 
L 342.578075 -65.860031 
L 343.213407 -65.388849 
L 343.848739 -64.936803 
L 344.48407 -64.501971 
L 345.119402 -64.069153 
L 345.754734 -63.62578 
L 346.390066 -63.195826 
L 347.025398 -62.76517 
L 347.660729 -62.349554 
L 348.296061 -61.948503 
L 348.931393 -61.554801 
L 349.566725 -61.169313 
L 350.202057 -60.785914 
L 350.837388 -60.413218 
L 351.47272 -60.051537 
L 352.108052 -59.701086 
L 352.743384 -59.355105 
L 353.378716 -59.014724 
L 354.014047 -58.701385 
L 354.649379 -58.405446 
L 355.284711 -58.104964 
L 355.920043 -57.829509 
L 356.555374 -57.562514 
L 357.190706 -57.303701 
L 357.826038 -57.052715 
L 358.46137 -56.809147 
L 359.096702 -56.572539 
L 359.732033 -56.342412 
L 360.367365 -56.104546 
L 361.002697 -55.888162 
L 361.638029 -55.669591 
L 362.273361 -55.463283 
L 362.908692 -55.260698 
L 363.544024 -55.054662 
L 364.179356 -54.86109 
L 364.814688 -54.679816 
L 365.45002 -54.494599 
L 366.085351 -54.3123 
L 366.720683 -54.126111 
L 367.356015 -53.950999 
L 367.991347 -53.778964 
L 368.626679 -53.589659 
L 369.26201 -53.42107 
L 369.897342 -53.263881 
L 370.532674 -53.110351 
L 371.168006 -52.954077 
L 371.803337 -52.803525 
L 372.438669 -52.665857 
L 373.074001 -52.533398 
L 373.709333 -52.399783 
L 374.344665 -52.280341 
L 374.979996 -52.160487 
L 375.615328 -52.048645 
L 376.25066 -51.945027 
L 376.885992 -51.856687 
L 377.521324 -51.762061 
L 378.156655 -51.69115 
L 378.791987 -51.627847 
L 379.427319 -51.572352 
L 380.062651 -51.524792 
L 380.697983 -51.485217 
L 381.333314 -51.453605 
L 381.968646 -51.429859 
L 382.603978 -51.413813 
L 383.23931 -51.405233 
L 383.874642 -51.403816 
L 384.509973 -51.402336 
L 385.145305 -51.415227 
L 385.780637 -51.433847 
L 386.415969 -51.457694 
L 387.0513 -51.486216 
L 387.686632 -51.518822 
L 388.321964 -51.554888 
L 388.957296 -51.586896 
L 389.592628 -51.629029 
L 390.227959 -51.672432 
L 390.863291 -51.716437 
L 391.498623 -51.760368 
L 392.133955 -51.803562 
L 392.769287 -51.845364 
L 393.404618 -51.885145 
L 394.03995 -51.922305 
L 394.675282 -51.956277 
L 395.310614 -51.98654 
L 395.945946 -52.005758 
L 396.581277 -52.028366 
L 397.216609 -52.045838 
L 397.851941 -52.057897 
L 398.487273 -52.057467 
L 398.487273 -50.112 
L 398.487273 -50.112 
L 397.851941 -50.112 
L 397.216609 -50.112 
L 396.581277 -50.112 
L 395.945946 -50.112 
L 395.310614 -50.112 
L 394.675282 -50.112 
L 394.03995 -50.112 
L 393.404618 -50.112 
L 392.769287 -50.112 
L 392.133955 -50.112 
L 391.498623 -50.112 
L 390.863291 -50.112 
L 390.227959 -50.112 
L 389.592628 -50.112 
L 388.957296 -50.112 
L 388.321964 -50.112 
L 387.686632 -50.112 
L 387.0513 -50.112 
L 386.415969 -50.112 
L 385.780637 -50.112 
L 385.145305 -50.112 
L 384.509973 -50.112 
L 383.874642 -50.112 
L 383.23931 -50.112 
L 382.603978 -50.112 
L 381.968646 -50.112 
L 381.333314 -50.112 
L 380.697983 -50.112 
L 380.062651 -50.112 
L 379.427319 -50.112 
L 378.791987 -50.112 
L 378.156655 -50.112 
L 377.521324 -50.112 
L 376.885992 -50.112 
L 376.25066 -50.112 
L 375.615328 -50.112 
L 374.979996 -50.112 
L 374.344665 -50.112 
L 373.709333 -50.112 
L 373.074001 -50.112 
L 372.438669 -50.112 
L 371.803337 -50.112 
L 371.168006 -50.112 
L 370.532674 -50.112 
L 369.897342 -50.112 
L 369.26201 -50.112 
L 368.626679 -50.112 
L 367.991347 -50.112 
L 367.356015 -50.112 
L 366.720683 -50.112 
L 366.085351 -50.112 
L 365.45002 -50.112 
L 364.814688 -50.112 
L 364.179356 -50.112 
L 363.544024 -50.112 
L 362.908692 -50.112 
L 362.273361 -50.112 
L 361.638029 -50.112 
L 361.002697 -50.112 
L 360.367365 -50.112 
L 359.732033 -50.112 
L 359.096702 -50.112 
L 358.46137 -50.112 
L 357.826038 -50.112 
L 357.190706 -50.112 
L 356.555374 -50.112 
L 355.920043 -50.112 
L 355.284711 -50.112 
L 354.649379 -50.112 
L 354.014047 -50.112 
L 353.378716 -50.112 
L 352.743384 -50.112 
L 352.108052 -50.112 
L 351.47272 -50.112 
L 350.837388 -50.112 
L 350.202057 -50.112 
L 349.566725 -50.112 
L 348.931393 -50.112 
L 348.296061 -50.112 
L 347.660729 -50.112 
L 347.025398 -50.112 
L 346.390066 -50.112 
L 345.754734 -50.112 
L 345.119402 -50.112 
L 344.48407 -50.112 
L 343.848739 -50.112 
L 343.213407 -50.112 
L 342.578075 -50.112 
L 341.942743 -50.112 
L 341.307411 -50.112 
L 340.67208 -50.112 
L 340.036748 -50.112 
L 339.401416 -50.112 
L 338.766084 -50.112 
L 338.130753 -50.112 
L 337.495421 -50.112 
L 336.860089 -50.112 
L 336.224757 -50.112 
L 335.589425 -50.112 
L 334.954094 -50.112 
L 334.318762 -50.112 
L 333.68343 -50.112 
L 333.048098 -50.112 
L 332.412766 -50.112 
L 331.777435 -50.112 
L 331.142103 -50.112 
L 330.506771 -50.112 
L 329.871439 -50.112 
L 329.236107 -50.112 
L 328.600776 -50.112 
L 327.965444 -50.112 
L 327.330112 -50.112 
L 326.69478 -50.112 
L 326.059448 -50.112 
L 325.424117 -50.112 
L 324.788785 -50.112 
L 324.153453 -50.112 
L 323.518121 -50.112 
L 322.88279 -50.112 
L 322.247458 -50.112 
L 321.612126 -50.112 
L 320.976794 -50.112 
L 320.341462 -50.112 
L 319.706131 -50.112 
L 319.070799 -50.112 
L 318.435467 -50.112 
L 317.800135 -50.112 
L 317.164803 -50.112 
L 316.529472 -50.112 
L 315.89414 -50.112 
L 315.258808 -50.112 
L 314.623476 -50.112 
L 313.988144 -50.112 
L 313.352813 -50.112 
L 312.717481 -50.112 
L 312.082149 -50.112 
L 311.446817 -50.112 
L 310.811486 -50.112 
L 310.176154 -50.112 
L 309.540822 -50.112 
L 308.90549 -50.112 
L 308.270158 -50.112 
L 307.634827 -50.112 
L 306.999495 -50.112 
L 306.364163 -50.112 
L 305.728831 -50.112 
L 305.093499 -50.112 
L 304.458168 -50.112 
L 303.822836 -50.112 
L 303.187504 -50.112 
L 302.552172 -50.112 
L 301.91684 -50.112 
L 301.281509 -50.112 
L 300.646177 -50.112 
L 300.010845 -50.112 
L 299.375513 -50.112 
L 298.740181 -50.112 
L 298.10485 -50.112 
L 297.469518 -50.112 
L 296.834186 -50.112 
L 296.198854 -50.112 
L 295.563523 -50.112 
L 294.928191 -50.112 
L 294.292859 -50.112 
L 293.657527 -50.112 
L 293.022195 -50.112 
L 292.386864 -50.112 
L 291.751532 -50.112 
L 291.1162 -50.112 
L 290.480868 -50.112 
L 289.845536 -50.112 
L 289.210205 -50.112 
L 288.574873 -50.112 
L 287.939541 -50.112 
L 287.304209 -50.112 
L 286.668877 -50.112 
L 286.033546 -50.112 
L 285.398214 -50.112 
L 284.762882 -50.112 
L 284.12755 -50.112 
L 283.492218 -50.112 
L 282.856887 -50.112 
L 282.221555 -50.112 
L 281.586223 -50.112 
L 280.950891 -50.112 
L 280.31556 -50.112 
L 279.680228 -50.112 
L 279.044896 -50.112 
L 278.409564 -50.112 
L 277.774232 -50.112 
L 277.138901 -50.112 
L 276.503569 -50.112 
L 275.868237 -50.112 
L 275.232905 -50.112 
L 274.597573 -50.112 
L 273.962242 -50.112 
L 273.32691 -50.112 
L 272.691578 -50.112 
L 272.056246 -50.112 
L 271.420914 -50.112 
L 270.785583 -50.112 
L 270.150251 -50.112 
L 269.514919 -50.112 
L 268.879587 -50.112 
L 268.244255 -50.112 
L 267.608924 -50.112 
L 266.973592 -50.112 
L 266.33826 -50.112 
L 265.702928 -50.112 
L 265.067597 -50.112 
L 264.432265 -50.112 
L 263.796933 -50.112 
L 263.161601 -50.112 
L 262.526269 -50.112 
L 261.890938 -50.112 
L 261.255606 -50.112 
L 260.620274 -50.112 
L 259.984942 -50.112 
L 259.34961 -50.112 
L 258.714279 -50.112 
L 258.078947 -50.112 
L 257.443615 -50.112 
L 256.808283 -50.112 
L 256.172951 -50.112 
L 255.53762 -50.112 
L 254.902288 -50.112 
L 254.266956 -50.112 
L 253.631624 -50.112 
L 252.996292 -50.112 
L 252.360961 -50.112 
L 251.725629 -50.112 
L 251.090297 -50.112 
L 250.454965 -50.112 
L 249.819634 -50.112 
L 249.184302 -50.112 
L 248.54897 -50.112 
L 247.913638 -50.112 
L 247.278306 -50.112 
L 246.642975 -50.112 
L 246.007643 -50.112 
L 245.372311 -50.112 
L 244.736979 -50.112 
L 244.101647 -50.112 
L 243.466316 -50.112 
L 242.830984 -50.112 
L 242.195652 -50.112 
L 241.56032 -50.112 
L 240.924988 -50.112 
L 240.289657 -50.112 
L 239.654325 -50.112 
L 239.018993 -50.112 
L 238.383661 -50.112 
L 237.748329 -50.112 
L 237.112998 -50.112 
L 236.477666 -50.112 
L 235.842334 -50.112 
L 235.207002 -50.112 
L 234.571671 -50.112 
L 233.936339 -50.112 
L 233.301007 -50.112 
L 232.665675 -50.112 
L 232.030343 -50.112 
L 231.395012 -50.112 
L 230.75968 -50.112 
L 230.124348 -50.112 
L 229.489016 -50.112 
L 228.853684 -50.112 
L 228.218353 -50.112 
L 227.583021 -50.112 
L 226.947689 -50.112 
L 226.312357 -50.112 
L 225.677025 -50.112 
L 225.041694 -50.112 
L 224.406362 -50.112 
L 223.77103 -50.112 
L 223.135698 -50.112 
L 222.500366 -50.112 
L 221.865035 -50.112 
L 221.229703 -50.112 
L 220.594371 -50.112 
L 219.959039 -50.112 
L 219.323708 -50.112 
L 218.688376 -50.112 
L 218.053044 -50.112 
L 217.417712 -50.112 
L 216.78238 -50.112 
L 216.147049 -50.112 
L 215.511717 -50.112 
L 214.876385 -50.112 
L 214.241053 -50.112 
L 213.605721 -50.112 
L 212.97039 -50.112 
L 212.335058 -50.112 
L 211.699726 -50.112 
L 211.064394 -50.112 
L 210.429062 -50.112 
L 209.793731 -50.112 
L 209.158399 -50.112 
L 208.523067 -50.112 
L 207.887735 -50.112 
L 207.252403 -50.112 
L 206.617072 -50.112 
L 205.98174 -50.112 
L 205.346408 -50.112 
L 204.711076 -50.112 
L 204.075745 -50.112 
L 203.440413 -50.112 
L 202.805081 -50.112 
L 202.169749 -50.112 
L 201.534417 -50.112 
L 200.899086 -50.112 
L 200.263754 -50.112 
L 199.628422 -50.112 
L 198.99309 -50.112 
L 198.357758 -50.112 
L 197.722427 -50.112 
L 197.087095 -50.112 
L 196.451763 -50.112 
L 195.816431 -50.112 
L 195.181099 -50.112 
L 194.545768 -50.112 
L 193.910436 -50.112 
L 193.275104 -50.112 
L 192.639772 -50.112 
L 192.00444 -50.112 
L 191.369109 -50.112 
L 190.733777 -50.112 
L 190.098445 -50.112 
L 189.463113 -50.112 
L 188.827782 -50.112 
L 188.19245 -50.112 
L 187.557118 -50.112 
L 186.921786 -50.112 
L 186.286454 -50.112 
L 185.651123 -50.112 
L 185.015791 -50.112 
L 184.380459 -50.112 
L 183.745127 -50.112 
L 183.109795 -50.112 
L 182.474464 -50.112 
L 181.839132 -50.112 
L 181.2038 -50.112 
L 180.568468 -50.112 
L 179.933136 -50.112 
L 179.297805 -50.112 
L 178.662473 -50.112 
L 178.027141 -50.112 
L 177.391809 -50.112 
L 176.756477 -50.112 
L 176.121146 -50.112 
L 175.485814 -50.112 
L 174.850482 -50.112 
L 174.21515 -50.112 
L 173.579819 -50.112 
L 172.944487 -50.112 
L 172.309155 -50.112 
L 171.673823 -50.112 
L 171.038491 -50.112 
L 170.40316 -50.112 
L 169.767828 -50.112 
L 169.132496 -50.112 
L 168.497164 -50.112 
L 167.861832 -50.112 
L 167.226501 -50.112 
L 166.591169 -50.112 
L 165.955837 -50.112 
L 165.320505 -50.112 
L 164.685173 -50.112 
L 164.049842 -50.112 
L 163.41451 -50.112 
L 162.779178 -50.112 
L 162.143846 -50.112 
L 161.508514 -50.112 
L 160.873183 -50.112 
L 160.237851 -50.112 
L 159.602519 -50.112 
L 158.967187 -50.112 
L 158.331856 -50.112 
L 157.696524 -50.112 
L 157.061192 -50.112 
L 156.42586 -50.112 
L 155.790528 -50.112 
L 155.155197 -50.112 
L 154.519865 -50.112 
L 153.884533 -50.112 
L 153.249201 -50.112 
L 152.613869 -50.112 
L 151.978538 -50.112 
L 151.343206 -50.112 
L 150.707874 -50.112 
L 150.072542 -50.112 
L 149.43721 -50.112 
L 148.801879 -50.112 
L 148.166547 -50.112 
L 147.531215 -50.112 
L 146.895883 -50.112 
L 146.260552 -50.112 
L 145.62522 -50.112 
L 144.989888 -50.112 
L 144.354556 -50.112 
L 143.719224 -50.112 
L 143.083893 -50.112 
L 142.448561 -50.112 
L 141.813229 -50.112 
L 141.177897 -50.112 
L 140.542565 -50.112 
L 139.907234 -50.112 
L 139.271902 -50.112 
L 138.63657 -50.112 
L 138.001238 -50.112 
L 137.365906 -50.112 
L 136.730575 -50.112 
L 136.095243 -50.112 
L 135.459911 -50.112 
L 134.824579 -50.112 
L 134.189247 -50.112 
L 133.553916 -50.112 
L 132.918584 -50.112 
L 132.283252 -50.112 
L 131.64792 -50.112 
L 131.012589 -50.112 
L 130.377257 -50.112 
L 129.741925 -50.112 
L 129.106593 -50.112 
L 128.471261 -50.112 
L 127.83593 -50.112 
L 127.200598 -50.112 
L 126.565266 -50.112 
L 125.929934 -50.112 
L 125.294602 -50.112 
L 124.659271 -50.112 
L 124.023939 -50.112 
L 123.388607 -50.112 
L 122.753275 -50.112 
L 122.117943 -50.112 
L 121.482612 -50.112 
L 120.84728 -50.112 
L 120.211948 -50.112 
L 119.576616 -50.112 
L 118.941284 -50.112 
L 118.305953 -50.112 
L 117.670621 -50.112 
L 117.035289 -50.112 
L 116.399957 -50.112 
L 115.764626 -50.112 
L 115.129294 -50.112 
L 114.493962 -50.112 
L 113.85863 -50.112 
L 113.223298 -50.112 
L 112.587967 -50.112 
L 111.952635 -50.112 
L 111.317303 -50.112 
L 110.681971 -50.112 
L 110.046639 -50.112 
L 109.411308 -50.112 
L 108.775976 -50.112 
L 108.140644 -50.112 
L 107.505312 -50.112 
L 106.86998 -50.112 
L 106.234649 -50.112 
L 105.599317 -50.112 
L 104.963985 -50.112 
L 104.328653 -50.112 
L 103.693321 -50.112 
L 103.05799 -50.112 
L 102.422658 -50.112 
L 101.787326 -50.112 
L 101.151994 -50.112 
L 100.516663 -50.112 
L 99.881331 -50.112 
L 99.245999 -50.112 
L 98.610667 -50.112 
L 97.975335 -50.112 
L 97.340004 -50.112 
L 96.704672 -50.112 
L 96.06934 -50.112 
L 95.434008 -50.112 
L 94.798676 -50.112 
L 94.163345 -50.112 
L 93.528013 -50.112 
L 92.892681 -50.112 
L 92.257349 -50.112 
L 91.622017 -50.112 
L 90.986686 -50.112 
L 90.351354 -50.112 
L 89.716022 -50.112 
L 89.08069 -50.112 
L 88.445358 -50.112 
L 87.810027 -50.112 
L 87.174695 -50.112 
L 86.539363 -50.112 
L 85.904031 -50.112 
L 85.2687 -50.112 
L 84.633368 -50.112 
L 83.998036 -50.112 
L 83.362704 -50.112 
L 82.727372 -50.112 
L 82.092041 -50.112 
L 81.456709 -50.112 
L 80.821377 -50.112 
L 80.186045 -50.112 
L 79.550713 -50.112 
L 78.915382 -50.112 
L 78.28005 -50.112 
L 77.644718 -50.112 
L 77.009386 -50.112 
L 76.374054 -50.112 
L 75.738723 -50.112 
L 75.103391 -50.112 
L 74.468059 -50.112 
L 73.832727 -50.112 
z
" style="stroke: #1f77b4; stroke-opacity: 0"/>
    </defs>
    <g clip-path="url(#p849b656d06)">
     <use xlink:href="#m7d7d8b2073" x="0" y="345.6" style="fill: #1f77b4; fill-opacity: 0; stroke: #1f77b4; stroke-opacity: 0"/>
    </g>
   </g>
   <g id="matplotlib.axis_1">
    <g id="xtick_1">
     <g id="line2d_1">
      <defs>
       <path id="m02b3964901" d="M 0 0 
L 0 3.5 
" style="stroke: #000000; stroke-width: 0.8"/>
      </defs>
      <g>
       <use xlink:href="#m02b3964901" x="63.037885" y="307.584" style="stroke: #000000; stroke-width: 0.8"/>
      </g>
     </g>
     <g id="text_1">
      <!-- 0.75 -->
      <g transform="translate(47.451948 325.221812) scale(0.14 -0.14)">
       <defs>
        <path id="DejaVuSans-30" d="M 2034 4250 
Q 1547 4250 1301 3770 
Q 1056 3291 1056 2328 
Q 1056 1369 1301 889 
Q 1547 409 2034 409 
Q 2525 409 2770 889 
Q 3016 1369 3016 2328 
Q 3016 3291 2770 3770 
Q 2525 4250 2034 4250 
z
M 2034 4750 
Q 2819 4750 3233 4129 
Q 3647 3509 3647 2328 
Q 3647 1150 3233 529 
Q 2819 -91 2034 -91 
Q 1250 -91 836 529 
Q 422 1150 422 2328 
Q 422 3509 836 4129 
Q 1250 4750 2034 4750 
z
" transform="scale(0.015625)"/>
        <path id="DejaVuSans-2e" d="M 684 794 
L 1344 794 
L 1344 0 
L 684 0 
L 684 794 
z
" transform="scale(0.015625)"/>
        <path id="DejaVuSans-37" d="M 525 4666 
L 3525 4666 
L 3525 4397 
L 1831 0 
L 1172 0 
L 2766 4134 
L 525 4134 
L 525 4666 
z
" transform="scale(0.015625)"/>
        <path id="DejaVuSans-35" d="M 691 4666 
L 3169 4666 
L 3169 4134 
L 1269 4134 
L 1269 2991 
Q 1406 3038 1543 3061 
Q 1681 3084 1819 3084 
Q 2600 3084 3056 2656 
Q 3513 2228 3513 1497 
Q 3513 744 3044 326 
Q 2575 -91 1722 -91 
Q 1428 -91 1123 -41 
Q 819 9 494 109 
L 494 744 
Q 775 591 1075 516 
Q 1375 441 1709 441 
Q 2250 441 2565 725 
Q 2881 1009 2881 1497 
Q 2881 1984 2565 2268 
Q 2250 2553 1709 2553 
Q 1456 2553 1204 2497 
Q 953 2441 691 2322 
L 691 4666 
z
" transform="scale(0.015625)"/>
       </defs>
       <use xlink:href="#DejaVuSans-30"/>
       <use xlink:href="#DejaVuSans-2e" x="63.623047"/>
       <use xlink:href="#DejaVuSans-37" x="95.410156"/>
       <use xlink:href="#DejaVuSans-35" x="159.033203"/>
      </g>
     </g>
    </g>
    <g id="xtick_2">
     <g id="line2d_2">
      <g>
       <use xlink:href="#m02b3964901" x="116.041619" y="307.584" style="stroke: #000000; stroke-width: 0.8"/>
      </g>
     </g>
     <g id="text_2">
      <!-- 0.80 -->
      <g transform="translate(100.455682 325.221812) scale(0.14 -0.14)">
       <defs>
        <path id="DejaVuSans-38" d="M 2034 2216 
Q 1584 2216 1326 1975 
Q 1069 1734 1069 1313 
Q 1069 891 1326 650 
Q 1584 409 2034 409 
Q 2484 409 2743 651 
Q 3003 894 3003 1313 
Q 3003 1734 2745 1975 
Q 2488 2216 2034 2216 
z
M 1403 2484 
Q 997 2584 770 2862 
Q 544 3141 544 3541 
Q 544 4100 942 4425 
Q 1341 4750 2034 4750 
Q 2731 4750 3128 4425 
Q 3525 4100 3525 3541 
Q 3525 3141 3298 2862 
Q 3072 2584 2669 2484 
Q 3125 2378 3379 2068 
Q 3634 1759 3634 1313 
Q 3634 634 3220 271 
Q 2806 -91 2034 -91 
Q 1263 -91 848 271 
Q 434 634 434 1313 
Q 434 1759 690 2068 
Q 947 2378 1403 2484 
z
M 1172 3481 
Q 1172 3119 1398 2916 
Q 1625 2713 2034 2713 
Q 2441 2713 2670 2916 
Q 2900 3119 2900 3481 
Q 2900 3844 2670 4047 
Q 2441 4250 2034 4250 
Q 1625 4250 1398 4047 
Q 1172 3844 1172 3481 
z
" transform="scale(0.015625)"/>
       </defs>
       <use xlink:href="#DejaVuSans-30"/>
       <use xlink:href="#DejaVuSans-2e" x="63.623047"/>
       <use xlink:href="#DejaVuSans-38" x="95.410156"/>
       <use xlink:href="#DejaVuSans-30" x="159.033203"/>
      </g>
     </g>
    </g>
    <g id="xtick_3">
     <g id="line2d_3">
      <g>
       <use xlink:href="#m02b3964901" x="169.045354" y="307.584" style="stroke: #000000; stroke-width: 0.8"/>
      </g>
     </g>
     <g id="text_3">
      <!-- 0.85 -->
      <g transform="translate(153.459416 325.221812) scale(0.14 -0.14)">
       <use xlink:href="#DejaVuSans-30"/>
       <use xlink:href="#DejaVuSans-2e" x="63.623047"/>
       <use xlink:href="#DejaVuSans-38" x="95.410156"/>
       <use xlink:href="#DejaVuSans-35" x="159.033203"/>
      </g>
     </g>
    </g>
    <g id="xtick_4">
     <g id="line2d_4">
      <g>
       <use xlink:href="#m02b3964901" x="222.049088" y="307.584" style="stroke: #000000; stroke-width: 0.8"/>
      </g>
     </g>
     <g id="text_4">
      <!-- 0.90 -->
      <g transform="translate(206.463151 325.221812) scale(0.14 -0.14)">
       <defs>
        <path id="DejaVuSans-39" d="M 703 97 
L 703 672 
Q 941 559 1184 500 
Q 1428 441 1663 441 
Q 2288 441 2617 861 
Q 2947 1281 2994 2138 
Q 2813 1869 2534 1725 
Q 2256 1581 1919 1581 
Q 1219 1581 811 2004 
Q 403 2428 403 3163 
Q 403 3881 828 4315 
Q 1253 4750 1959 4750 
Q 2769 4750 3195 4129 
Q 3622 3509 3622 2328 
Q 3622 1225 3098 567 
Q 2575 -91 1691 -91 
Q 1453 -91 1209 -44 
Q 966 3 703 97 
z
M 1959 2075 
Q 2384 2075 2632 2365 
Q 2881 2656 2881 3163 
Q 2881 3666 2632 3958 
Q 2384 4250 1959 4250 
Q 1534 4250 1286 3958 
Q 1038 3666 1038 3163 
Q 1038 2656 1286 2365 
Q 1534 2075 1959 2075 
z
" transform="scale(0.015625)"/>
       </defs>
       <use xlink:href="#DejaVuSans-30"/>
       <use xlink:href="#DejaVuSans-2e" x="63.623047"/>
       <use xlink:href="#DejaVuSans-39" x="95.410156"/>
       <use xlink:href="#DejaVuSans-30" x="159.033203"/>
      </g>
     </g>
    </g>
    <g id="xtick_5">
     <g id="line2d_5">
      <g>
       <use xlink:href="#m02b3964901" x="275.052823" y="307.584" style="stroke: #000000; stroke-width: 0.8"/>
      </g>
     </g>
     <g id="text_5">
      <!-- 0.95 -->
      <g transform="translate(259.466885 325.221812) scale(0.14 -0.14)">
       <use xlink:href="#DejaVuSans-30"/>
       <use xlink:href="#DejaVuSans-2e" x="63.623047"/>
       <use xlink:href="#DejaVuSans-39" x="95.410156"/>
       <use xlink:href="#DejaVuSans-35" x="159.033203"/>
      </g>
     </g>
    </g>
    <g id="xtick_6">
     <g id="line2d_6">
      <g>
       <use xlink:href="#m02b3964901" x="328.056557" y="307.584" style="stroke: #000000; stroke-width: 0.8"/>
      </g>
     </g>
     <g id="text_6">
      <!-- 1.00 -->
      <g transform="translate(312.470619 325.221812) scale(0.14 -0.14)">
       <defs>
        <path id="DejaVuSans-31" d="M 794 531 
L 1825 531 
L 1825 4091 
L 703 3866 
L 703 4441 
L 1819 4666 
L 2450 4666 
L 2450 531 
L 3481 531 
L 3481 0 
L 794 0 
L 794 531 
z
" transform="scale(0.015625)"/>
       </defs>
       <use xlink:href="#DejaVuSans-31"/>
       <use xlink:href="#DejaVuSans-2e" x="63.623047"/>
       <use xlink:href="#DejaVuSans-30" x="95.410156"/>
       <use xlink:href="#DejaVuSans-30" x="159.033203"/>
      </g>
     </g>
    </g>
    <g id="xtick_7">
     <g id="line2d_7">
      <g>
       <use xlink:href="#m02b3964901" x="381.060291" y="307.584" style="stroke: #000000; stroke-width: 0.8"/>
      </g>
     </g>
     <g id="text_7">
      <!-- 1.05 -->
      <g transform="translate(365.474354 325.221812) scale(0.14 -0.14)">
       <use xlink:href="#DejaVuSans-31"/>
       <use xlink:href="#DejaVuSans-2e" x="63.623047"/>
       <use xlink:href="#DejaVuSans-30" x="95.410156"/>
       <use xlink:href="#DejaVuSans-35" x="159.033203"/>
      </g>
     </g>
    </g>
   </g>
   <g id="matplotlib.axis_2">
    <g id="ytick_1">
     <g id="line2d_8">
      <defs>
       <path id="m233b42444c" d="M 0 0 
L -3.5 0 
" style="stroke: #000000; stroke-width: 0.8"/>
      </defs>
      <g>
       <use xlink:href="#m233b42444c" x="57.6" y="295.488" style="stroke: #000000; stroke-width: 0.8"/>
      </g>
     </g>
     <g id="text_8">
      <!-- 0 -->
      <g transform="translate(41.6925 300.806906) scale(0.14 -0.14)">
       <use xlink:href="#DejaVuSans-30"/>
      </g>
     </g>
    </g>
    <g id="ytick_2">
     <g id="line2d_9">
      <g>
       <use xlink:href="#m233b42444c" x="57.6" y="244.058537" style="stroke: #000000; stroke-width: 0.8"/>
      </g>
     </g>
     <g id="text_9">
      <!-- 2 -->
      <g transform="translate(41.6925 249.377443) scale(0.14 -0.14)">
       <defs>
        <path id="DejaVuSans-32" d="M 1228 531 
L 3431 531 
L 3431 0 
L 469 0 
L 469 531 
Q 828 903 1448 1529 
Q 2069 2156 2228 2338 
Q 2531 2678 2651 2914 
Q 2772 3150 2772 3378 
Q 2772 3750 2511 3984 
Q 2250 4219 1831 4219 
Q 1534 4219 1204 4116 
Q 875 4013 500 3803 
L 500 4441 
Q 881 4594 1212 4672 
Q 1544 4750 1819 4750 
Q 2544 4750 2975 4387 
Q 3406 4025 3406 3419 
Q 3406 3131 3298 2873 
Q 3191 2616 2906 2266 
Q 2828 2175 2409 1742 
Q 1991 1309 1228 531 
z
" transform="scale(0.015625)"/>
       </defs>
       <use xlink:href="#DejaVuSans-32"/>
      </g>
     </g>
    </g>
    <g id="ytick_3">
     <g id="line2d_10">
      <g>
       <use xlink:href="#m233b42444c" x="57.6" y="192.629074" style="stroke: #000000; stroke-width: 0.8"/>
      </g>
     </g>
     <g id="text_10">
      <!-- 4 -->
      <g transform="translate(41.6925 197.94798) scale(0.14 -0.14)">
       <defs>
        <path id="DejaVuSans-34" d="M 2419 4116 
L 825 1625 
L 2419 1625 
L 2419 4116 
z
M 2253 4666 
L 3047 4666 
L 3047 1625 
L 3713 1625 
L 3713 1100 
L 3047 1100 
L 3047 0 
L 2419 0 
L 2419 1100 
L 313 1100 
L 313 1709 
L 2253 4666 
z
" transform="scale(0.015625)"/>
       </defs>
       <use xlink:href="#DejaVuSans-34"/>
      </g>
     </g>
    </g>
    <g id="ytick_4">
     <g id="line2d_11">
      <g>
       <use xlink:href="#m233b42444c" x="57.6" y="141.199611" style="stroke: #000000; stroke-width: 0.8"/>
      </g>
     </g>
     <g id="text_11">
      <!-- 6 -->
      <g transform="translate(41.6925 146.518517) scale(0.14 -0.14)">
       <defs>
        <path id="DejaVuSans-36" d="M 2113 2584 
Q 1688 2584 1439 2293 
Q 1191 2003 1191 1497 
Q 1191 994 1439 701 
Q 1688 409 2113 409 
Q 2538 409 2786 701 
Q 3034 994 3034 1497 
Q 3034 2003 2786 2293 
Q 2538 2584 2113 2584 
z
M 3366 4563 
L 3366 3988 
Q 3128 4100 2886 4159 
Q 2644 4219 2406 4219 
Q 1781 4219 1451 3797 
Q 1122 3375 1075 2522 
Q 1259 2794 1537 2939 
Q 1816 3084 2150 3084 
Q 2853 3084 3261 2657 
Q 3669 2231 3669 1497 
Q 3669 778 3244 343 
Q 2819 -91 2113 -91 
Q 1303 -91 875 529 
Q 447 1150 447 2328 
Q 447 3434 972 4092 
Q 1497 4750 2381 4750 
Q 2619 4750 2861 4703 
Q 3103 4656 3366 4563 
z
" transform="scale(0.015625)"/>
       </defs>
       <use xlink:href="#DejaVuSans-36"/>
      </g>
     </g>
    </g>
    <g id="ytick_5">
     <g id="line2d_12">
      <g>
       <use xlink:href="#m233b42444c" x="57.6" y="89.770148" style="stroke: #000000; stroke-width: 0.8"/>
      </g>
     </g>
     <g id="text_12">
      <!-- 8 -->
      <g transform="translate(41.6925 95.089054) scale(0.14 -0.14)">
       <use xlink:href="#DejaVuSans-38"/>
      </g>
     </g>
    </g>
   </g>
   <g id="line2d_13">
    <path d="M 73.832727 288.987923 
L 76.374054 289.09601 
L 79.550713 289.519809 
L 82.727372 290.149319 
L 89.08069 291.475614 
L 92.257349 291.877724 
L 95.434008 292.026614 
L 98.610667 291.896906 
L 101.787326 291.528006 
L 105.599317 290.832359 
L 112.587967 289.172865 
L 115.764626 288.163953 
L 118.305953 287.142865 
L 120.211948 286.205137 
L 122.117943 285.06869 
L 124.659271 283.127493 
L 126.565266 281.326056 
L 128.471261 279.205972 
L 130.377257 276.706376 
L 132.283252 273.912114 
L 134.824579 269.727597 
L 138.63657 262.785883 
L 158.967187 223.390112 
L 161.508514 217.791776 
L 164.049842 211.620344 
L 166.591169 204.765002 
L 169.132496 197.156495 
L 171.038491 190.946763 
L 173.579819 181.971428 
L 176.756477 169.772223 
L 181.2038 151.544056 
L 188.19245 123.090052 
L 191.369109 111.166381 
L 193.910436 102.37041 
L 196.451763 94.171156 
L 198.99309 86.707484 
L 201.534417 79.878529 
L 204.075745 73.831089 
L 205.98174 69.793175 
L 208.523067 65.197622 
L 210.429062 62.391817 
L 212.97039 59.339601 
L 214.241053 58.052486 
L 216.147049 56.524796 
L 218.053044 55.3821 
L 219.323708 54.822744 
L 221.865035 53.965133 
L 225.041694 53.584382 
L 226.312357 53.59657 
L 227.583021 53.772697 
L 229.489016 54.289137 
L 230.75968 54.869461 
L 232.030343 55.626991 
L 233.301007 56.688956 
L 235.207002 58.701058 
L 236.477666 60.434868 
L 237.748329 62.439074 
L 239.654325 66.068279 
L 242.195652 72.003771 
L 244.101647 77.238552 
L 247.278306 86.972755 
L 251.725629 101.860898 
L 254.902288 112.389808 
L 258.078947 122.179998 
L 260.620274 129.291267 
L 263.796933 137.3713 
L 267.608924 146.390153 
L 271.420914 155.414732 
L 274.597573 163.401489 
L 277.774232 171.917721 
L 282.221555 184.639435 
L 286.033546 195.56947 
L 289.845536 205.865702 
L 292.386864 212.26644 
L 294.928191 218.155907 
L 297.469518 223.626212 
L 300.646177 229.846249 
L 305.093499 237.752508 
L 309.540822 245.045993 
L 315.258808 253.836796 
L 319.070799 259.156494 
L 321.612126 262.302105 
L 324.788785 265.830736 
L 327.965444 268.862221 
L 330.506771 270.967188 
L 333.68343 273.353295 
L 345.754734 281.97422 
L 349.566725 284.430687 
L 352.743384 286.244895 
L 355.284711 287.495036 
L 359.096702 289.027461 
L 363.544024 290.545338 
L 369.26201 292.17893 
L 373.709333 293.200217 
L 377.521324 293.837939 
L 380.697983 294.114783 
L 384.509973 294.197664 
L 388.957296 294.013104 
L 397.216609 293.554162 
L 398.487273 293.542533 
L 398.487273 293.542533 
" clip-path="url(#p849b656d06)" style="fill: none; stroke: #1f77b4; stroke-width: 1.5; stroke-linecap: square"/>
   </g>
   <g id="patch_3">
    <path d="M 57.6 307.584 
L 57.6 41.472 
" style="fill: none; stroke: #000000; stroke-width: 0.8; stroke-linejoin: miter; stroke-linecap: square"/>
   </g>
   <g id="patch_4">
    <path d="M 414.72 307.584 
L 414.72 41.472 
" style="fill: none; stroke: #000000; stroke-width: 0.8; stroke-linejoin: miter; stroke-linecap: square"/>
   </g>
   <g id="patch_5">
    <path d="M 57.6 307.584 
L 414.72 307.584 
" style="fill: none; stroke: #000000; stroke-width: 0.8; stroke-linejoin: miter; stroke-linecap: square"/>
   </g>
   <g id="patch_6">
    <path d="M 57.6 41.472 
L 414.72 41.472 
" style="fill: none; stroke: #000000; stroke-width: 0.8; stroke-linejoin: miter; stroke-linecap: square"/>
   </g>
  </g>
 </g>
 <defs>
  <clipPath id="p849b656d06">
   <rect x="57.6" y="41.472" width="357.12" height="266.112"/>
  </clipPath>
 </defs>
</svg>
